<svg id="Calque_1" data-name="Calque 1" xmlns="http://www.w3.org/2000/svg" viewBox="0 0 512 512">
  <defs>
    <style>
      .cls-1 {
        fill: #fff;
      }

      .cls-2 {
        fill: #09c;
      }
    </style>
  </defs>
  <circle class="cls-2" cx="256" cy="256.14" r="250.86"/>
  <rect class="cls-1" x="78.68" y="334.75" width="151.07" height="30.58" rx="4" ry="4" transform="translate(292.68 -6.52) rotate(45)"/>
  <path class="cls-1" d="m331.68,180.9l-58.24,58.24c2.57,5.9,1.46,12.98-3.34,17.8-6.29,6.29-16.49,6.28-22.77,0-6.29-6.29-6.29-16.48,0-22.77,4.8-4.82,11.91-5.91,17.8-3.34l58.23-58.26c-32.29,17.39-98.83,47.56-159.39,39.69,0,0-10.25,55.06-42.26,97.31,0,0,14.72,21.13,33.29,39.69,18.56,18.58,39.7,33.3,39.7,33.3,42.26-32.01,97.31-42.26,97.31-42.26-7.87-60.56,22.31-127.1,39.7-159.41Z"/>
  <g>
    <g>
      <path class="cls-1" d="m249.38,151.7l-.02-.02c-.8-.82-.79-2.12.03-2.92.42-.41,10.52-10.15,27.02-9.27,15.52.83,31.11,10.64,46.33,29.19,16.71,20.35,34.08,31.68,50.23,32.76,13.4.9,22.2-5.3,26.26-9.07.84-.78,2.13-.77,2.93.11.78.84.73,2.15-.11,2.93-4.55,4.23-14.41,11.17-29.36,10.17-17.32-1.17-35.7-13.01-53.15-34.27-14.42-17.57-28.98-26.88-43.27-27.68-14.66-.82-23.89,8-23.99,8.09-.81.79-2.11.78-2.91-.02Z"/>
      <rect class="cls-1" x="387.1" y="184.25" width="19.29" height="19.28" transform="translate(-20.9 337.33) rotate(-45)"/>
      <rect class="cls-1" x="237.34" y="136.73" width="27.02" height="27.01" transform="translate(-32.76 221.38) rotate(-45)"/>
    </g>
    <g>
      <path class="cls-1" d="m341.9,238.1c-.07-.07-.11-.15-.13-.25l-20.14-110.17c-.05-.26.12-.51.38-.55.26-.05.51.12.55.38l20.14,110.17c.05.26-.12.51-.38.55-.16.03-.32-.02-.42-.13Z"/>
      <g>
        <path class="cls-1" d="m345.81,241.35c-1.98,1.98-5.18,1.97-7.16,0-1.97-1.97-1.97-5.18,0-7.15,1.98-1.98,5.18-1.98,7.15,0,1.97,1.97,1.98,5.18,0,7.16Z"/>
        <path class="cls-1" d="m326.42,132.2c-1.98,1.98-5.18,1.97-7.16,0-1.98-1.98-1.97-5.18,0-7.15,1.98-1.98,5.18-1.98,7.16,0s1.98,5.18,0,7.16Z"/>
      </g>
    </g>
  </g>
</svg>
